<svg xmlns="http://www.w3.org/2000/svg" viewBox="0 0 512 512" width="512" height="512">
  <!-- Background -->
  <rect width="512" height="512" fill="#87CEEB" rx="80"/>
  <!-- Ground -->
  <rect x="0" y="396" width="512" height="116" fill="#5AB85C"/>
  <rect x="0" y="480" width="512" height="32" fill="#7D5124"/>
  <!-- Clouds -->
  <ellipse cx="80" cy="80" rx="70" ry="30" fill="rgba(255,255,255,0.85)"/>
  <ellipse cx="120" cy="60" rx="45" ry="25" fill="rgba(255,255,255,0.85)"/>
  <ellipse cx="390" cy="100" rx="60" ry="26" fill="rgba(255,255,255,0.8)"/>
  <ellipse cx="430" cy="82" rx="38" ry="20" fill="rgba(255,255,255,0.8)"/>
  <!-- Poop body -->
  <ellipse cx="256" cy="340" rx="120" ry="58" fill="#6B3A2A"/>
  <ellipse cx="256" cy="285" rx="90" ry="55" fill="#7B4132"/>
  <ellipse cx="256" cy="236" rx="60" ry="50" fill="#8B4A38"/>
  <ellipse cx="256" cy="196" rx="38" ry="36" fill="#8B4A38"/>
  <!-- Swirl highlight -->
  <path d="M256 180 Q278 168 272 192 Q265 212 256 202" stroke="#A05A44" stroke-width="5" fill="none" stroke-linecap="round"/>
  <!-- Eyes -->
  <circle cx="234" cy="275" r="12" fill="white"/>
  <circle cx="278" cy="275" r="12" fill="white"/>
  <circle cx="237" cy="278" r="6.5" fill="#1a1a1a"/>
  <circle cx="281" cy="278" r="6.5" fill="#1a1a1a"/>
  <!-- Eye shine -->
  <circle cx="239" cy="274" r="2.5" fill="white"/>
  <circle cx="283" cy="274" r="2.5" fill="white"/>
  <!-- Smile -->
  <path d="M232 302 Q256 322 280 302" stroke="#1a1a1a" stroke-width="6" fill="none" stroke-linecap="round"/>
  <!-- Rosy cheeks -->
  <ellipse cx="222" cy="295" rx="10" ry="7" fill="rgba(255,100,100,0.35)"/>
  <ellipse cx="290" cy="295" rx="10" ry="7" fill="rgba(255,100,100,0.35)"/>
  <!-- Sparkles -->
  <text x="50"  y="160" font-size="50" font-family="serif">✨</text>
  <text x="380" y="150" font-size="44" font-family="serif">⭐</text>
  <text x="60"  y="300" font-size="36" font-family="serif">💨</text>
</svg>
